{
 "cells": [
  {
   "cell_type": "markdown",
   "metadata": {},
   "source": [
    "# take video and split it into scenes"
   ]
  },
  {
   "cell_type": "code",
   "execution_count": 29,
   "metadata": {},
   "outputs": [],
   "source": [
    "import cv2\n",
    "import os\n",
    "import shutil\n",
    "import ffmpeg\n",
    "import numpy as np\n",
    "import subprocess\n",
    "from typing import Union\n",
    "import PIL\n",
    "\n",
    "# TODO: I don;t like having functions that return nothing. Can they be included in other functions, or written outside of a function?\n",
    "    \n",
    "def save_scene(video_path: str, output_folder: str, start_time: int, end_time: int, scene_number: int) -> None:\n",
    "    output_file = os.path.join(output_folder, f\"scene_{scene_number}.avi\")\n",
    "    ffmpeg.input(video_path, ss=start_time/1000, to=end_time/1000).output(output_file, vcodec='huffyuv').run()\n",
    "\n",
    "# TODO: add overwrite and simplify by using ffmpeg filter scene, also goes in error at the last scene, irrelevant for now but maybe I can fix it\n",
    "def split_video_into_scenes(video_path: str, output_folder: str, threshold: int = 100) -> None:\n",
    "\n",
    "# watch the video, identify scene changes, set threshold accordingly \n",
    "        \n",
    "    cap = cv2.VideoCapture(video_path)\n",
    "    if not cap.isOpened():\n",
    "        print(\"Error: Could not open video.\")\n",
    "        return\n",
    "\n",
    "    prev_frame = None\n",
    "    scene_start = 0\n",
    "    scene_number = 1\n",
    "\n",
    "    # parse the video frame by frame\n",
    "    while cap.isOpened():\n",
    "        ret, frame = cap.read()\n",
    "        if not ret:\n",
    "            break\n",
    "        if prev_frame is not None:\n",
    "            # if frame is different enough from previous, consider it a scene change\n",
    "            diff = cv2.absdiff(prev_frame, frame)\n",
    "            mean_diff = diff.mean()\n",
    "            if mean_diff > threshold:\n",
    "                # get times of scene start and end, save new video between those times\n",
    "                scene_end = cap.get(cv2.CAP_PROP_POS_MSEC)\n",
    "                save_scene(video_path, output_folder, scene_start, scene_end, scene_number)\n",
    "                scene_start = scene_end\n",
    "                scene_number += 1\n",
    "\n",
    "        prev_frame = frame.copy()\n",
    "\n",
    "    # Save the last scene\n",
    "    save_scene(video_path, output_folder, scene_start, cap.get(cv2.CAP_PROP_POS_MSEC), scene_number)\n",
    "\n",
    "    cap.release()\n",
    "\n",
    "unprocessed_video_path = \"Tears_of_Steel_1080p.mov\"\n",
    "parent_video_folder = \"Tears_of_Steel_1080p\"\n",
    "os.makedirs(parent_video_folder, exist_ok=True)\n",
    "\n",
    "# split_video_into_scenes(unprocessed_video_path, parent_video_folder, threshold=45)"
   ]
  },
  {
   "cell_type": "code",
   "execution_count": 2,
   "metadata": {},
   "outputs": [],
   "source": [
    "scene_path = 'Tears_of_Steel_1080p/scene_5.avi'\n",
    "\n",
    "def split_video_into_frames(video_path: str) -> None:\n",
    "    video_name, _ = video_path.rsplit('.', 1)\n",
    "    # if folder exists, delete it, then create it\n",
    "    if os.path.exists(video_name):\n",
    "        shutil.rmtree(video_name)\n",
    "    os.mkdir(video_name)\n",
    "    subprocess.run(f'ffmpeg -i {video_path} {video_name}/frame%04d.png', shell=True)\n",
    "\n",
    "# split_video_into_frames(scene_path)"
   ]
  },
  {
   "cell_type": "code",
   "execution_count": 46,
   "metadata": {},
   "outputs": [],
   "source": [
    "def crop_image(image: np.array, width: int, height: int) -> np.array:\n",
    "    \"\"\"\n",
    "    Crop the input image to the specified size centered around its center.\n",
    "    \n",
    "    Parameters:\n",
    "        image (numpy.ndarray): Input image represented as a numpy array.\n",
    "        width (int): Width of the region to be cropped.\n",
    "        height (int): Height of the region to be cropped.\n",
    "    \n",
    "    Returns:\n",
    "        numpy.ndarray: Cropped image.\n",
    "    \"\"\"\n",
    "    # Calculate coordinates of the top-left corner for cropping\n",
    "    center_x = image.shape[1] // 2\n",
    "    center_y = image.shape[0] // 2\n",
    "    x = max(0, center_x - width // 2)\n",
    "    y = max(0, center_y - height // 2)\n",
    "    \n",
    "    # Crop the image\n",
    "    cropped_image = image[y:y+height, x:x+width]\n",
    "    \n",
    "    return cropped_image\n",
    "\n",
    "def split_image_into_squares(image: np.array, l: int) -> np.array:\n",
    "    \"\"\"\n",
    "    Split an image into squares of a specific size.\n",
    "\n",
    "    Args:\n",
    "    - image: numpy array representing the image with shape [n, m, c]\n",
    "    - l: integer representing the side length of each square\n",
    "\n",
    "    Returns:\n",
    "    - numpy array with shape [n//l, m//l, l, l, c] containing the squares\n",
    "    \"\"\"\n",
    "    n, m, c = image.shape\n",
    "    num_rows = n // l\n",
    "    num_cols = m // l\n",
    "    squares = np.zeros((num_rows, num_cols, l, l, c), dtype=image.dtype)\n",
    "    for i in range(num_rows):\n",
    "        for j in range(num_cols):\n",
    "            squares[i, j] = image[i*l:(i+1)*l, j*l:(j+1)*l, :]\n",
    "    return squares\n",
    "\n",
    "def filter_squares(squares: np.array, filter_factor: int, inpaint_white: bool = True) -> Union[np.array, np.array]:\n",
    "    \"\"\"\n",
    "    Filter squares based on their indices.\n",
    "\n",
    "    Args:\n",
    "    - squares: numpy array with shape [n, m, l, l, c] containing the squares\n",
    "\n",
    "    Returns:\n",
    "    - filtered_squares: numpy array with shape [n_filtered, m_filtered, l, l, c] containing the filtered squares\n",
    "    - filter_mask: numpy array with shape [n, m] indicating which blocks were kept (1) or filtered out (0)\n",
    "    \"\"\"\n",
    "    n, m, _, _, _ = squares.shape\n",
    "    if inpaint_white:\n",
    "        filter_mask = np.ones(squares.shape, dtype=int) * 255\n",
    "        filter_mask[::filter_factor, ::filter_factor] = 0\n",
    "    else:\n",
    "        filter_mask = np.zeros(squares.shape, dtype=int)\n",
    "        filter_mask[::filter_factor, ::filter_factor] = 255\n",
    "\n",
    "    filtered_squares = squares[::filter_factor, ::filter_factor]\n",
    "\n",
    "    return filtered_squares, filter_mask\n",
    "\n",
    "def flatten_squares_into_image(squares: np.array) -> np.array:\n",
    "    \"\"\"\n",
    "    Reconstruct the original image from split squares.\n",
    "\n",
    "    Args:\n",
    "    - squares: numpy array with shape [n, m, l, l, c] containing the split squares\n",
    "\n",
    "    Returns:\n",
    "    - numpy array representing the reconstructed image\n",
    "    \"\"\"\n",
    "    n, m, l, _, c = squares.shape\n",
    "    num_rows = n * l\n",
    "    num_cols = m * l\n",
    "    image = np.zeros((num_rows, num_cols, c), dtype=squares.dtype)\n",
    "    for i in range(n):\n",
    "        for j in range(m):\n",
    "            image[i*l:(i+1)*l, j*l:(j+1)*l, :] = squares[i, j]\n",
    "    return image\n",
    "\n",
    "# TODO: this is fundamentally only one command, and returns None, probably better to remove the function and just call the command in the loop\n",
    "def save_image(frame: np.array, output_folder: str, file_name: str) -> None:\n",
    "\n",
    "    # Create the output directory if it doesn't exist\n",
    "    os.makedirs(output_folder, exist_ok=True)\n",
    "    # save filtered frame, overwrite if it exists\n",
    "    cv2.imwrite(output_folder + '/' + file_name, frame, [int(cv2.IMWRITE_PNG_COMPRESSION), 0])\n",
    "\n",
    "square_size = 16\n",
    "filter_factor = 2\n",
    "width, height = (512, 512)\n",
    "scene_name, _ = scene_path.rsplit('.', 1)\n",
    "for frame_name in os.listdir(scene_name):\n",
    "    if frame_name.endswith('.png'):\n",
    "        frame = cv2.imread(scene_name + '/' + frame_name)\n",
    "        frame = crop_image(frame, width, height)\n",
    "        save_image(frame, scene_name + '/' + 'cropped_original', frame_name)\n",
    "        squared_frame = split_image_into_squares(frame, square_size)\n",
    "        filtered_squares, mask_squares = filter_squares(squared_frame, filter_factor)\n",
    "        filtered_flattened = flatten_squares_into_image(filtered_squares)\n",
    "        mask_flattened = flatten_squares_into_image(mask_squares)\n",
    "        save_image(filtered_flattened, scene_name + '/' + 'reconstructed_filtered', frame_name)\n",
    "        save_image(mask_flattened, scene_name + '/' + 'reconstructed_filtered_masks', frame_name)"
   ]
  },
  {
   "cell_type": "code",
   "execution_count": 47,
   "metadata": {},
   "outputs": [],
   "source": [
    "# take all frames and recreate video\n",
    "\n",
    "def get_frame_rate(video_path: str) -> int:\n",
    "    \"\"\"\n",
    "    Get the frame rate of a video file using OpenCV.\n",
    "\n",
    "    Args:\n",
    "    - video_path: Path to the video file.\n",
    "\n",
    "    Returns:\n",
    "    - Frame rate of the video file.\n",
    "    \"\"\"\n",
    "    cap = cv2.VideoCapture(video_path)\n",
    "    if not cap.isOpened():\n",
    "        print(\"Error: Couldn't open the video file.\")\n",
    "        return None\n",
    "\n",
    "    frame_rate = cap.get(cv2.CAP_PROP_FPS)\n",
    "    cap.release()\n",
    "    return frame_rate\n",
    "\n",
    "def reconstruct_video_from_frames(input_folder: str, frame_rate: int) -> None:\n",
    "    \"\"\"\n",
    "    Create a lossless video from frames in a folder using OpenCV with FFV1 codec.\n",
    "\n",
    "    Args:\n",
    "    - input_folder: Path to the folder containing the frames.\n",
    "    - frame_rate: Frame rate of the output video.\n",
    "\n",
    "    Returns:\n",
    "    - None\n",
    "    \"\"\"\n",
    "    frame_files = sorted(os.listdir(input_folder))\n",
    "    output_video_path = input_folder + '.avi'\n",
    "\n",
    "    # If the video file exists, delete it\n",
    "    if os.path.exists(output_video_path):\n",
    "        os.remove(output_video_path)\n",
    "\n",
    "    # Get the first frame to obtain its dimensions\n",
    "    first_frame_path = os.path.join(input_folder, frame_files[0])\n",
    "    first_frame = cv2.imread(first_frame_path)\n",
    "    frame_height, frame_width, _ = first_frame.shape\n",
    "\n",
    "    # Initialize VideoWriter object with FFV1 codec for lossless compression\n",
    "    fourcc = cv2.VideoWriter_fourcc(*'FFV1')  # FFV1 codec for lossless compression\n",
    "    out = cv2.VideoWriter(output_video_path, fourcc, frame_rate, (frame_width, frame_height))\n",
    "\n",
    "    # Iterate through each frame file and write it to the video\n",
    "    for frame_file in frame_files:\n",
    "        frame_path = os.path.join(input_folder, frame_file)\n",
    "        frame = cv2.imread(frame_path)\n",
    "        out.write(frame)\n",
    "\n",
    "    # Release the VideoWriter object\n",
    "    out.release()\n",
    "\n",
    "frame_rate = get_frame_rate(scene_path)\n",
    "reconstruct_video_from_frames(scene_name + '/cropped_original', frame_rate)\n",
    "reconstruct_video_from_frames(scene_name + '/reconstructed_filtered', frame_rate)"
   ]
  },
  {
   "cell_type": "markdown",
   "metadata": {},
   "source": [
    "\n",
    "# encode video and check size reduction from encoded original\n"
   ]
  },
  {
   "cell_type": "code",
   "execution_count": 48,
   "metadata": {},
   "outputs": [
    {
     "name": "stderr",
     "output_type": "stream",
     "text": [
      "ffmpeg version 6.1.1 Copyright (c) 2000-2023 the FFmpeg developers\n",
      "  built with gcc 12.3.0 (conda-forge gcc 12.3.0-5)\n",
      "  configuration: --prefix=/home/itec/emanuele/.conda/envs/inpainting --cc=/home/conda/feedstock_root/build_artifacts/ffmpeg_1706918361713/_build_env/bin/x86_64-conda-linux-gnu-cc --cxx=/home/conda/feedstock_root/build_artifacts/ffmpeg_1706918361713/_build_env/bin/x86_64-conda-linux-gnu-c++ --nm=/home/conda/feedstock_root/build_artifacts/ffmpeg_1706918361713/_build_env/bin/x86_64-conda-linux-gnu-nm --ar=/home/conda/feedstock_root/build_artifacts/ffmpeg_1706918361713/_build_env/bin/x86_64-conda-linux-gnu-ar --disable-doc --disable-openssl --enable-demuxer=dash --enable-hardcoded-tables --enable-libfreetype --enable-libharfbuzz --enable-libfontconfig --enable-libopenh264 --enable-libdav1d --enable-gnutls --enable-libmp3lame --enable-libvpx --enable-libass --enable-pthreads --enable-vaapi --enable-libopenvino --enable-gpl --enable-libx264 --enable-libx265 --enable-libaom --enable-libsvtav1 --enable-libxml2 --enable-pic --enable-shared --disable-static --enable-version3 --enable-zlib --enable-libopus --pkg-config=/home/conda/feedstock_root/build_artifacts/ffmpeg_1706918361713/_build_env/bin/pkg-config\n",
      "  libavutil      58. 29.100 / 58. 29.100\n",
      "  libavcodec     60. 31.102 / 60. 31.102\n",
      "  libavformat    60. 16.100 / 60. 16.100\n",
      "  libavdevice    60.  3.100 / 60.  3.100\n",
      "  libavfilter     9. 12.100 /  9. 12.100\n",
      "  libswscale      7.  5.100 /  7.  5.100\n",
      "  libswresample   4. 12.100 /  4. 12.100\n",
      "  libpostproc    57.  3.100 / 57.  3.100\n",
      "Input #0, avi, from 'Tears_of_Steel_1080p/scene_5/cropped_original.avi':\n",
      "  Metadata:\n",
      "    software        : Lavf60.16.100\n",
      "  Duration: 00:00:16.46, start: 0.000000, bitrate: 34519 kb/s\n",
      "  Stream #0:0: Video: ffv1 (FFV1 / 0x31564646), bgra, 512x512, 34599 kb/s, 24 fps, 24 tbr, 24 tbn\n",
      "Stream mapping:\n",
      "  Stream #0:0 -> #0:0 (ffv1 (native) -> h264 (libx264))\n",
      "Press [q] to stop, [?] for help\n",
      "[libx264 @ 0x5570b8087140] using cpu capabilities: MMX2 SSE2Fast SSSE3 SSE4.2 AVX FMA3 BMI2 AVX2 AVX512\n",
      "[libx264 @ 0x5570b8087140] profile High 4:4:4 Predictive, level 3.0, 4:4:4, 8-bit\n",
      "[libx264 @ 0x5570b8087140] 264 - core 164 r3095 baee400 - H.264/MPEG-4 AVC codec - Copyleft 2003-2022 - http://www.videolan.org/x264.html - options: cabac=1 ref=3 deblock=1:0:0 analyse=0x3:0x113 me=hex subme=7 psy=1 psy_rd=1.00:0.00 mixed_ref=1 me_range=16 chroma_me=1 trellis=1 8x8dct=1 cqm=0 deadzone=21,11 fast_pskip=1 chroma_qp_offset=4 threads=16 lookahead_threads=2 sliced_threads=0 nr=0 decimate=1 interlaced=0 bluray_compat=0 constrained_intra=0 bframes=3 b_pyramid=2 b_adapt=1 b_bias=0 direct=1 weightb=1 open_gop=0 weightp=2 keyint=250 keyint_min=24 scenecut=40 intra_refresh=0 rc_lookahead=40 rc=crf mbtree=1 crf=20.0 qcomp=0.60 qpmin=0 qpmax=69 qpstep=4 ip_ratio=1.40 aq=1:1.00\n",
      "Output #0, mp4, to 'Tears_of_Steel_1080p/scene_5/encoded_original.mp4':\n",
      "  Metadata:\n",
      "    software        : Lavf60.16.100\n",
      "    encoder         : Lavf60.16.100\n",
      "  Stream #0:0: Video: h264 (avc1 / 0x31637661), yuv444p(tv, progressive), 512x512, q=2-31, 24 fps, 12288 tbn\n",
      "    Metadata:\n",
      "      encoder         : Lavc60.31.102 libx264\n",
      "    Side data:\n",
      "      cpb: bitrate max/min/avg: 0/0/0 buffer size: 0 vbv_delay: N/A\n",
      "[out#0/mp4 @ 0x5570b80848c0] video:3365kB audio:0kB subtitle:0kB other streams:0kB global headers:0kB muxing overhead: 0.162735%\n",
      "frame=  395 fps= 90 q=-1.0 Lsize=    3371kB time=00:00:16.33 bitrate=1690.6kbits/s speed=3.71x    \n",
      "[libx264 @ 0x5570b8087140] frame I:3     Avg QP:20.28  size: 61705\n",
      "[libx264 @ 0x5570b8087140] frame P:103   Avg QP:20.86  size: 15634\n",
      "[libx264 @ 0x5570b8087140] frame B:289   Avg QP:25.38  size:  5709\n",
      "[libx264 @ 0x5570b8087140] consecutive B-frames:  1.0%  3.0%  3.8% 92.2%\n",
      "[libx264 @ 0x5570b8087140] mb I  I16..4:  5.0% 33.3% 61.6%\n",
      "[libx264 @ 0x5570b8087140] mb P  I16..4:  0.7%  3.9%  7.0%  P16..4: 37.7% 29.0% 14.6%  0.0%  0.0%    skip: 7.0%\n",
      "[libx264 @ 0x5570b8087140] mb B  I16..4:  0.2%  0.4%  3.2%  B16..8: 39.5%  9.0%  2.7%  direct: 1.8%  skip:43.2%  L0:37.8% L1:47.4% BI:14.8%\n",
      "[libx264 @ 0x5570b8087140] 8x8 transform intra:23.7% inter:53.6%\n",
      "[libx264 @ 0x5570b8087140] coded y,u,v intra: 94.4% 53.8% 47.2% inter: 21.9% 4.9% 4.1%\n",
      "[libx264 @ 0x5570b8087140] i16 v,h,dc,p: 12% 15% 47% 26%\n",
      "[libx264 @ 0x5570b8087140] i8 v,h,dc,ddl,ddr,vr,hd,vl,hu: 25% 17% 12%  5%  7%  9%  7%  8% 10%\n",
      "[libx264 @ 0x5570b8087140] i4 v,h,dc,ddl,ddr,vr,hd,vl,hu: 36% 15% 13%  5%  6%  7%  5%  7%  6%\n",
      "[libx264 @ 0x5570b8087140] Weighted P-Frames: Y:4.9% UV:3.9%\n",
      "[libx264 @ 0x5570b8087140] ref P L0: 55.1% 19.5% 18.5%  6.4%  0.5%\n",
      "[libx264 @ 0x5570b8087140] ref B L0: 88.7%  8.9%  2.4%\n",
      "[libx264 @ 0x5570b8087140] ref B L1: 94.3%  5.7%\n",
      "[libx264 @ 0x5570b8087140] kb/s:1674.73\n",
      "ffmpeg version 6.1.1 Copyright (c) 2000-2023 the FFmpeg developers\n",
      "  built with gcc 12.3.0 (conda-forge gcc 12.3.0-5)\n",
      "  configuration: --prefix=/home/itec/emanuele/.conda/envs/inpainting --cc=/home/conda/feedstock_root/build_artifacts/ffmpeg_1706918361713/_build_env/bin/x86_64-conda-linux-gnu-cc --cxx=/home/conda/feedstock_root/build_artifacts/ffmpeg_1706918361713/_build_env/bin/x86_64-conda-linux-gnu-c++ --nm=/home/conda/feedstock_root/build_artifacts/ffmpeg_1706918361713/_build_env/bin/x86_64-conda-linux-gnu-nm --ar=/home/conda/feedstock_root/build_artifacts/ffmpeg_1706918361713/_build_env/bin/x86_64-conda-linux-gnu-ar --disable-doc --disable-openssl --enable-demuxer=dash --enable-hardcoded-tables --enable-libfreetype --enable-libharfbuzz --enable-libfontconfig --enable-libopenh264 --enable-libdav1d --enable-gnutls --enable-libmp3lame --enable-libvpx --enable-libass --enable-pthreads --enable-vaapi --enable-libopenvino --enable-gpl --enable-libx264 --enable-libx265 --enable-libaom --enable-libsvtav1 --enable-libxml2 --enable-pic --enable-shared --disable-static --enable-version3 --enable-zlib --enable-libopus --pkg-config=/home/conda/feedstock_root/build_artifacts/ffmpeg_1706918361713/_build_env/bin/pkg-config\n",
      "  libavutil      58. 29.100 / 58. 29.100\n",
      "  libavcodec     60. 31.102 / 60. 31.102\n",
      "  libavformat    60. 16.100 / 60. 16.100\n",
      "  libavdevice    60.  3.100 / 60.  3.100\n",
      "  libavfilter     9. 12.100 /  9. 12.100\n",
      "  libswscale      7.  5.100 /  7.  5.100\n",
      "  libswresample   4. 12.100 /  4. 12.100\n",
      "  libpostproc    57.  3.100 / 57.  3.100\n",
      "Input #0, avi, from 'Tears_of_Steel_1080p/scene_5/reconstructed_filtered.avi':\n",
      "  Metadata:\n",
      "    software        : Lavf60.16.100\n",
      "  Duration: 00:00:16.46, start: 0.000000, bitrate: 9256 kb/s\n",
      "  Stream #0:0: Video: ffv1 (FFV1 / 0x31564646), bgra, 256x256, 9272 kb/s, 24 fps, 24 tbr, 24 tbn\n",
      "Stream mapping:\n",
      "  Stream #0:0 -> #0:0 (ffv1 (native) -> h264 (libx264))\n",
      "Press [q] to stop, [?] for help\n",
      "[libx264 @ 0x55f1c9117bc0] using cpu capabilities: MMX2 SSE2Fast SSSE3 SSE4.2 AVX FMA3 BMI2 AVX2 AVX512\n",
      "[libx264 @ 0x55f1c9117bc0] profile High 4:4:4 Predictive, level 1.3, 4:4:4, 8-bit\n",
      "[libx264 @ 0x55f1c9117bc0] 264 - core 164 r3095 baee400 - H.264/MPEG-4 AVC codec - Copyleft 2003-2022 - http://www.videolan.org/x264.html - options: cabac=1 ref=3 deblock=1:0:0 analyse=0x3:0x113 me=hex subme=7 psy=1 psy_rd=1.00:0.00 mixed_ref=1 me_range=16 chroma_me=1 trellis=1 8x8dct=1 cqm=0 deadzone=21,11 fast_pskip=1 chroma_qp_offset=4 threads=8 lookahead_threads=1 sliced_threads=0 nr=0 decimate=1 interlaced=0 bluray_compat=0 constrained_intra=0 bframes=3 b_pyramid=2 b_adapt=1 b_bias=0 direct=1 weightb=1 open_gop=0 weightp=2 keyint=250 keyint_min=24 scenecut=40 intra_refresh=0 rc_lookahead=40 rc=crf mbtree=1 crf=20.0 qcomp=0.60 qpmin=0 qpmax=69 qpstep=4 ip_ratio=1.40 aq=1:1.00\n",
      "Output #0, mp4, to 'Tears_of_Steel_1080p/scene_5/encoded_filtered.mp4':\n",
      "  Metadata:\n",
      "    software        : Lavf60.16.100\n",
      "    encoder         : Lavf60.16.100\n",
      "  Stream #0:0: Video: h264 (avc1 / 0x31637661), yuv444p(tv, progressive), 256x256, q=2-31, 24 fps, 12288 tbn\n",
      "    Metadata:\n",
      "      encoder         : Lavc60.31.102 libx264\n",
      "    Side data:\n",
      "      cpb: bitrate max/min/avg: 0/0/0 buffer size: 0 vbv_delay: N/A\n",
      "[out#0/mp4 @ 0x55f1c91168c0] video:1268kB audio:0kB subtitle:0kB other streams:0kB global headers:0kB muxing overhead: 0.386089%\n",
      "frame=  395 fps=237 q=-1.0 Lsize=    1273kB time=00:00:16.33 bitrate= 638.5kbits/s speed=9.82x    \n",
      "[libx264 @ 0x55f1c9117bc0] frame I:3     Avg QP:21.01  size: 15832\n",
      "[libx264 @ 0x55f1c9117bc0] frame P:175   Avg QP:21.25  size:  4222\n",
      "[libx264 @ 0x55f1c9117bc0] frame B:217   Avg QP:26.03  size:  2358\n",
      "[libx264 @ 0x55f1c9117bc0] consecutive B-frames: 23.5%  8.1%  4.6% 63.8%\n",
      "[libx264 @ 0x55f1c9117bc0] mb I  I16..4:  4.3% 44.0% 51.7%\n",
      "[libx264 @ 0x55f1c9117bc0] mb P  I16..4:  0.4%  3.9%  4.7%  P16..4: 23.3% 34.6% 24.3%  0.0%  0.0%    skip: 8.8%\n",
      "[libx264 @ 0x55f1c9117bc0] mb B  I16..4:  0.1%  0.7%  4.1%  B16..8: 22.7% 16.8%  9.9%  direct: 3.2%  skip:42.3%  L0:40.1% L1:44.8% BI:15.1%\n",
      "[libx264 @ 0x55f1c9117bc0] 8x8 transform intra:32.5% inter:48.6%\n",
      "[libx264 @ 0x55f1c9117bc0] coded y,u,v intra: 97.1% 52.6% 44.6% inter: 35.0% 7.3% 6.2%\n",
      "[libx264 @ 0x55f1c9117bc0] i16 v,h,dc,p: 22% 10% 58% 11%\n",
      "[libx264 @ 0x55f1c9117bc0] i8 v,h,dc,ddl,ddr,vr,hd,vl,hu: 19% 15% 21%  8%  4%  6%  4%  9% 14%\n",
      "[libx264 @ 0x55f1c9117bc0] i4 v,h,dc,ddl,ddr,vr,hd,vl,hu: 31% 18% 15%  6%  5%  7%  5%  7%  8%\n",
      "[libx264 @ 0x55f1c9117bc0] Weighted P-Frames: Y:2.9% UV:2.3%\n",
      "[libx264 @ 0x55f1c9117bc0] ref P L0: 61.3% 18.5% 13.0%  6.9%  0.3%\n",
      "[libx264 @ 0x55f1c9117bc0] ref B L0: 86.8%  9.9%  3.3%\n",
      "[libx264 @ 0x55f1c9117bc0] ref B L1: 93.9%  6.1%\n",
      "[libx264 @ 0x55f1c9117bc0] kb/s:630.91\n"
     ]
    }
   ],
   "source": [
    "def encode_video(input_video_path: str, output_video_path: str, codec: str, bitrate: str = None, crf: int = None) -> Union[str, None]:\n",
    "    \"\"\"\n",
    "    Encode a video file with the specified codec and bitrate.\n",
    "\n",
    "    Args:\n",
    "    - input_video_path: Path to the input video file.\n",
    "    - output_video_path: Path to save the output video.\n",
    "    - codec: Codec to use for encoding (default: libx264).\n",
    "    - bitrate: Bitrate for the output video (default: '10M' for 10 Mbps).\n",
    "\n",
    "    Returns:\n",
    "    - A warning string if the parameters are not correctly selected\n",
    "    - None otherwise\n",
    "    \"\"\"\n",
    "\n",
    "    # If the video file exists, delete it\n",
    "    if os.path.exists(output_video_path):\n",
    "        os.remove(output_video_path)\n",
    "    \n",
    "    if bitrate:\n",
    "        command = ['ffmpeg', '-y', '-i', input_video_path, '-c:v', codec, '-b:v', bitrate, output_video_path]\n",
    "    elif crf:\n",
    "        command = ['ffmpeg', '-y', '-i', input_video_path, '-c:v', codec, '-crf', str(crf), output_video_path]\n",
    "    else:\n",
    "        return 'Please specify either a target bitrate or a compression rate factor'\n",
    "    subprocess.run(command)\n",
    "\n",
    "# constants\n",
    "codec = 'libx264'\n",
    "bitrate = '1M'\n",
    "crf = 23\n",
    "\n",
    "# encode original\n",
    "original = scene_name + '/cropped_original.avi'\n",
    "encoded_original = scene_name + '/encoded_original.mp4'\n",
    "encode_video(original, encoded_original, codec, crf=20)\n",
    "\n",
    "# encode filtered\n",
    "filtered = scene_name + '/reconstructed_filtered.avi'\n",
    "encoded_filtered = scene_name + '/encoded_filtered.mp4'\n",
    "encode_video(filtered, encoded_filtered, codec, crf=20)"
   ]
  },
  {
   "cell_type": "code",
   "execution_count": 49,
   "metadata": {},
   "outputs": [
    {
     "name": "stdout",
     "output_type": "stream",
     "text": [
      "encoded original: 3451699\n",
      "encoded filtered size reduction: 0.6223086080217308%\n"
     ]
    }
   ],
   "source": [
    "# compare sizes\n",
    "encoded_original_size = os.stat(encoded_original).st_size\n",
    "encoded_filtered_size = os.stat(encoded_filtered).st_size\n",
    "\n",
    "print(f'encoded original: {encoded_original_size}')\n",
    "print(f'encoded filtered size reduction: {1 - encoded_filtered_size/encoded_original_size}%')\n",
    "\n",
    "# TODO: split into blocks, calculate quality of each block against the uncompressed, average them"
   ]
  },
  {
   "cell_type": "markdown",
   "metadata": {},
   "source": [
    "# Client side"
   ]
  },
  {
   "cell_type": "code",
   "execution_count": 50,
   "metadata": {},
   "outputs": [
    {
     "name": "stderr",
     "output_type": "stream",
     "text": [
      "ffmpeg version 6.1.1 Copyright (c) 2000-2023 the FFmpeg developers\n",
      "  built with gcc 12.3.0 (conda-forge gcc 12.3.0-5)\n",
      "  configuration: --prefix=/home/itec/emanuele/.conda/envs/inpainting --cc=/home/conda/feedstock_root/build_artifacts/ffmpeg_1706918361713/_build_env/bin/x86_64-conda-linux-gnu-cc --cxx=/home/conda/feedstock_root/build_artifacts/ffmpeg_1706918361713/_build_env/bin/x86_64-conda-linux-gnu-c++ --nm=/home/conda/feedstock_root/build_artifacts/ffmpeg_1706918361713/_build_env/bin/x86_64-conda-linux-gnu-nm --ar=/home/conda/feedstock_root/build_artifacts/ffmpeg_1706918361713/_build_env/bin/x86_64-conda-linux-gnu-ar --disable-doc --disable-openssl --enable-demuxer=dash --enable-hardcoded-tables --enable-libfreetype --enable-libharfbuzz --enable-libfontconfig --enable-libopenh264 --enable-libdav1d --enable-gnutls --enable-libmp3lame --enable-libvpx --enable-libass --enable-pthreads --enable-vaapi --enable-libopenvino --enable-gpl --enable-libx264 --enable-libx265 --enable-libaom --enable-libsvtav1 --enable-libxml2 --enable-pic --enable-shared --disable-static --enable-version3 --enable-zlib --enable-libopus --pkg-config=/home/conda/feedstock_root/build_artifacts/ffmpeg_1706918361713/_build_env/bin/pkg-config\n",
      "  libavutil      58. 29.100 / 58. 29.100\n",
      "  libavcodec     60. 31.102 / 60. 31.102\n",
      "  libavformat    60. 16.100 / 60. 16.100\n",
      "  libavdevice    60.  3.100 / 60.  3.100\n",
      "  libavfilter     9. 12.100 /  9. 12.100\n",
      "  libswscale      7.  5.100 /  7.  5.100\n",
      "  libswresample   4. 12.100 /  4. 12.100\n",
      "  libpostproc    57.  3.100 / 57.  3.100\n",
      "Input #0, mov,mp4,m4a,3gp,3g2,mj2, from 'Tears_of_Steel_1080p/scene_5/encoded_filtered.mp4':\n",
      "  Metadata:\n",
      "    major_brand     : isom\n",
      "    minor_version   : 512\n",
      "    compatible_brands: isomiso2avc1mp41\n",
      "    encoder         : Lavf60.16.100\n",
      "  Duration: 00:00:16.46, start: 0.000000, bitrate: 633 kb/s\n",
      "  Stream #0:0[0x1](und): Video: h264 (High 4:4:4 Predictive) (avc1 / 0x31637661), yuv444p(progressive), 256x256, 631 kb/s, 24 fps, 24 tbr, 12288 tbn (default)\n",
      "    Metadata:\n",
      "      handler_name    : VideoHandler\n",
      "      vendor_id       : [0][0][0][0]\n",
      "      encoder         : Lavc60.31.102 libx264\n",
      "Stream mapping:\n",
      "  Stream #0:0 -> #0:0 (h264 (native) -> png (native))\n",
      "Press [q] to stop, [?] for help\n",
      "Output #0, image2, to 'Tears_of_Steel_1080p/scene_5/encoded_filtered/frame%04d.png':\n",
      "  Metadata:\n",
      "    major_brand     : isom\n",
      "    minor_version   : 512\n",
      "    compatible_brands: isomiso2avc1mp41\n",
      "    encoder         : Lavf60.16.100\n",
      "  Stream #0:0(und): Video: png, rgb24(pc, gbr/unknown/unknown, progressive), 256x256, q=2-31, 200 kb/s, 24 fps, 24 tbn (default)\n",
      "    Metadata:\n",
      "      handler_name    : VideoHandler\n",
      "      vendor_id       : [0][0][0][0]\n",
      "      encoder         : Lavc60.31.102 png\n",
      "[out#0/image2 @ 0x5589d5cbb380] video:51120kB audio:0kB subtitle:0kB other streams:0kB global headers:0kB muxing overhead: unknown\n",
      "frame=  395 fps=0.0 q=-0.0 Lsize=N/A time=00:00:16.41 bitrate=N/A speed=48.5x    \n"
     ]
    }
   ],
   "source": [
    "def expand_frame(frame: np.array, mask: np.array) -> np.array:\n",
    "    \n",
    "    '''\n",
    "    Arguments:\n",
    "    - frame: numpy array with shape [n, m, l, l, c] containing the squares\n",
    "    - mask: numpy array with shape [N, M, l, l, c] containing [n//l, m//l] white squares and [N - n//l, M - m//l] black squares\n",
    "    - l: an integer specifying the side in pixel of a square\n",
    "\n",
    "    Returns:\n",
    "    - expanded_frame: numpy array with shape [N, M, l, l, c] where the squares of frame are substituted to the white squares of mask\n",
    "    '''\n",
    "\n",
    "    # Get dimensions\n",
    "    n, m, _, _, _ = frame.shape\n",
    "    N, _, _, _, _ = mask.shape\n",
    "    filter_factor = N / n\n",
    "\n",
    "    expanded_frame = np.copy(mask)\n",
    "\n",
    "    for i in range(n):\n",
    "        for j in range(m):\n",
    "            # iterate through each frame block\n",
    "            frame_block = frame[i, j, :, :, :]\n",
    "            # put it into the corresponding mask white block by multiplying its indices by the filter factor\n",
    "            expanded_frame[int(i * filter_factor), int(j * filter_factor), :, :, :] = frame_block\n",
    "    return expanded_frame\n",
    "\n",
    "# split encoded video into frames\n",
    "encoded_filtered_path = scene_name + '/encoded_filtered.mp4'\n",
    "encoded_filtered_name, _ = encoded_filtered_path.rsplit('.', 1)\n",
    "split_video_into_frames(encoded_filtered_path)\n",
    "\n",
    "# TODO: now we're passing a predetermined mask, needs a function that takes as input one or more masks, and yields one mask after another then loops back from the first, each time it's called\n",
    "mask_frame_path = scene_name + '/reconstructed_filtered_masks/frame0001.png'\n",
    "mask_frame = cv2.imread(mask_frame_path)\n",
    "mask_squares = split_image_into_squares(mask_frame, square_size)\n",
    "\n",
    "# TODO: instead of filtered, shrunk is a more telling name (I put the comment here but it applies to anything I called filtered)\n",
    "encoded_expanded_folder = scene_name + '/encoded_expanded'\n",
    "\n",
    "# iterate through frames, expand them, save them\n",
    "for frame_name in os.listdir(encoded_filtered_name):\n",
    "    if frame_name.endswith('.png'):\n",
    "        encoded_filtered_frame_path = encoded_filtered_name + '/' + frame_name\n",
    "        encoded_filtered_frame = cv2.imread(encoded_filtered_frame_path)\n",
    "        encoded_filtered_squares = split_image_into_squares(encoded_filtered_frame, square_size)\n",
    "        expanded_squares = expand_frame(encoded_filtered_squares, mask_squares)\n",
    "        expanded_frame = flatten_squares_into_image(expanded_squares)\n",
    "        save_image(expanded_frame, encoded_expanded_folder, frame_name)\n",
    "\n",
    "reconstruct_video_from_frames(encoded_expanded_folder, frame_rate)"
   ]
  },
  {
   "cell_type": "code",
   "execution_count": null,
   "metadata": {},
   "outputs": [],
   "source": [
    "# inpaint video\n",
    "import torch\n",
    "from diffusers import StableDiffusionInpaintPipeline\n",
    "pipe = StableDiffusionInpaintPipeline.from_pretrained(\n",
    "    \"runwayml/stable-diffusion-inpainting\",\n",
    "    variant='fp16',\n",
    "    torch_dtype=torch.float16,\n",
    ")\n",
    "pipe = pipe.to(\"cuda\")\n",
    "prompt = ''\n",
    "\n",
    "mask_frame_path = scene_name + '/reconstructed_filtered_masks/frame0001.png'\n",
    "mask_frame = PIL.Image.open(mask_frame_path)\n",
    "\n",
    "inpainted_folder = scene_name + '/inpainted'\n",
    "os.makedirs(inpainted_folder, exist_ok=True)\n",
    "\n",
    "for frame_name in os.listdir(encoded_expanded_folder):\n",
    "    if frame_name.endswith('.png'):\n",
    "        print(frame_name)\n",
    "        frame_path = encoded_expanded_folder + '/' + frame_name\n",
    "        # image and mask_image should be PIL images\n",
    "        frame = PIL.Image.open(frame_path)\n",
    "        # The mask structure is white for inpainting and black for keeping as is\n",
    "        output_image = pipe(prompt=prompt, image=frame, mask_image=mask_frame).images[0]\n",
    "        output_image.save(inpainted_folder + '/' + frame_name)\n",
    "\n",
    "reconstruct_video_from_frames(inpainted_folder, frame_rate)"
   ]
  },
  {
   "cell_type": "code",
   "execution_count": 52,
   "metadata": {},
   "outputs": [],
   "source": [
    "# TODO: check similarity between inpainted video and original"
   ]
  },
  {
   "cell_type": "code",
   "execution_count": null,
   "metadata": {},
   "outputs": [],
   "source": []
  }
 ],
 "metadata": {
  "kernelspec": {
   "display_name": "inpainting",
   "language": "python",
   "name": "python3"
  },
  "language_info": {
   "codemirror_mode": {
    "name": "ipython",
    "version": 3
   },
   "file_extension": ".py",
   "mimetype": "text/x-python",
   "name": "python",
   "nbconvert_exporter": "python",
   "pygments_lexer": "ipython3",
   "version": "3.12.2"
  }
 },
 "nbformat": 4,
 "nbformat_minor": 2
}
